<?xml version="1.0" standalone="no"?>
<!DOCTYPE svg PUBLIC "-//W3C//DTD SVG 20010904//EN"
 "http://www.w3.org/TR/2001/REC-SVG-20010904/DTD/svg10.dtd">
<svg version="1.0" xmlns="http://www.w3.org/2000/svg"
 width="76.000000pt" height="76.000000pt" viewBox="0 0 76.000000 76.000000"
 preserveAspectRatio="xMidYMid meet">
<metadata>
Created by potrace 1.11, written by Peter Selinger 2001-2013
</metadata>
<g transform="translate(0.000000,76.000000) scale(0.100000,-0.100000)"
fill="#000000" stroke="none">
<path d="M484 663 c-26 -54 -71 -149 -100 -211 -54 -112 -63 -142 -44 -142 6
0 10 -6 10 -13 0 -8 9 -22 20 -32 11 -10 20 -22 20 -27 0 -11 51 -81 63 -86 4
-2 7 -8 7 -13 0 -5 14 -28 30 -51 17 -22 30 -44 30 -48 0 -4 -42 -8 -94 -8
-71 -1 -97 3 -106 14 -7 7 -9 14 -5 14 4 0 2 6 -4 13 -6 8 -8 17 -4 20 3 4 2
7 -3 7 -6 0 -16 16 -23 35 -7 19 -17 35 -22 35 -6 0 -7 5 -4 10 3 6 3 10 -2
10 -4 0 -25 -37 -47 -81 -38 -80 -39 -81 -72 -77 -19 2 -34 -1 -34 -6 0 -6 -4
-6 -11 1 -7 7 6 49 45 142 55 129 64 161 48 161 -4 0 -13 12 -19 28 -22 50
-63 117 -63 102 0 -9 7 -25 15 -36 8 -12 11 -24 8 -28 -3 -3 -1 -6 6 -6 7 0 9
-4 6 -10 -3 -5 -2 -10 2 -10 5 0 13 -15 19 -32 8 -28 4 -45 -26 -113 -19 -44
-39 -83 -43 -86 -5 -3 -8 -8 -7 -10 1 -2 -3 -17 -9 -32 -6 -16 -11 -32 -11
-37 0 -5 -4 -10 -9 -12 -4 -1 -12 -13 -15 -25 l-7 -23 350 0 351 0 -47 73
c-27 39 -51 74 -54 77 -3 3 -24 33 -48 67 l-42 63 22 47 c12 27 21 50 20 52
-2 2 1 7 6 10 5 3 31 51 57 106 26 55 51 106 55 114 5 11 -11 29 -58 65 -36
27 -68 52 -71 55 -34 39 -38 36 -86 -66z"/>
<path d="M302 587 c-12 -13 -20 -26 -17 -29 3 -3 -2 -11 -10 -18 -12 -10 -21
-10 -41 -1 -49 22 -55 13 -22 -34 18 -25 35 -45 39 -45 9 0 49 87 49 106 0 8
4 14 9 14 5 0 11 7 15 15 7 21 3 19 -22 -8z"/>
</g>
</svg>
